<svg width="410" height="76" viewBox="0 0 410 76" fill="none" xmlns="http://www.w3.org/2000/svg">
<path fill-rule="evenodd" clip-rule="evenodd" d="M167.417 38C167.417 15.6425 150.673 0 128.206 0C105.736 0 88.8826 15.638 88.8826 38C88.8826 60.362 105.74 75.9999 128.206 75.9999C150.673 75.9999 167.417 60.3574 167.417 38ZM108.157 38C108.157 25.9938 115.965 16.7443 128.206 16.7443C140.321 16.7443 148.143 25.9938 148.156 38C148.156 49.8974 140.321 59.2602 128.206 59.2602C115.978 59.2602 108.157 49.8974 108.157 38Z" fill="white"/>
<path d="M172.477 1.21094H193.959L212.023 54.1914L230.196 1.21094H251.673L223.911 74.6809H200.126L172.477 1.21094Z" fill="white"/>
<path fill-rule="evenodd" clip-rule="evenodd" d="M281.517 49.7889H291.211L303.548 74.6809H325.23L310.267 47.6941C317.096 45.2729 324.917 38.4401 324.917 25.6631C324.917 12.0065 315.685 1.21094 299.363 1.21094H262.573V74.6809H281.517V49.7889ZM281.535 17.1844H296.497C301.444 17.1844 305.643 20.3583 305.643 25.4455C305.643 30.5327 301.458 33.7066 296.497 33.7066H281.535V17.1844Z" fill="white"/>
<path d="M359.829 30.2924V74.6809H340.89V1.21094H360.387L390.121 43.5273V1.21094H409.164V74.6627H390.892L359.829 30.2924Z" fill="white"/>
<path d="M46.5844 33.0215L40.9349 46.7007H58.5497C56.1512 54.5628 49.1688 60.3936 40.4634 60.3936C38.9408 60.3917 37.4221 60.2399 35.9293 59.9402L30.0985 74.7258C33.4873 75.5783 36.969 76.0063 40.4634 75.9999C60.7488 75.9999 76.6452 59.2238 76.6452 37.8095V33.0215H46.5844Z" fill="white"/>
<path d="M40.4634 15.6017C46.4904 15.5813 52.2774 17.9617 56.5457 22.2169L67.4275 10.0611C60.7488 4.02171 50.8963 0 40.4634 0C18.1649 0 0.835709 16.9393 0.835709 37.9093C0.833012 40.87 1.17846 43.8208 1.86494 46.7008H19.6883C18.5424 43.9152 17.9584 40.9305 17.9699 37.9184C17.9699 25.563 27.7272 15.6017 40.4634 15.6017Z" fill="white"/>
</svg>
